<svg width="227" height="109" viewBox="0 0 227 109" fill="none" xmlns="http://www.w3.org/2000/svg">
<path d="M165.268 20.1846C174.775 20.1847 181.94 27.1392 181.94 41.5576C181.94 59.1052 172.92 71.4139 156.873 71.4141C153.742 71.4141 149.104 71.4607 147.388 71.4375L149.684 59.3604H153.742C161.325 59.3603 164.502 52.359 164.502 43.1562C164.502 36.4109 161.394 33.0957 156.803 33.0957C152.629 33.0959 148.988 36.7362 147.597 44.6406L139.573 91.002H123.248L135.515 21.3438H151.608L149.869 31.4971C152.536 24.6587 157.244 20.1846 165.268 20.1846ZM13.9834 24.6875C18.2271 21.7203 23.7 19.8425 29.8916 20.2598C42.9472 21.1407 49.9732 28.1177 49.3008 38.0391L35.4805 37.9932V37.8311C35.666 34.0062 33.5091 31.3168 29.1494 31.085C25.5088 30.8995 23.004 32.6148 22.8184 35.4658C22.656 37.5289 23.955 38.8974 30.8887 41.4473C36.7553 43.6262 40.6514 45.8741 42.5762 48.0762C44.5009 50.2784 45.2898 52.991 45.0811 56.1436C44.71 61.5447 42.344 65.7175 37.8916 68.7773C33.4394 71.7211 27.9205 73.0194 21.335 72.5791C15.0506 72.1618 9.9249 70.4234 6.00586 67.2939C2.06363 64.1413 0.0695688 60.2696 0 55.4248L14.5859 54.4512C14.6787 58.7859 17.6472 61.7535 22.3545 62.0781C26.2039 62.3331 28.6857 60.6407 28.8945 57.4883C29.0569 55.2166 27.8506 53.965 20.917 51.5078C15.2356 49.4447 11.456 47.2188 9.62402 45.0166C7.8153 42.8145 7.00354 40.0098 7.23535 36.7646C7.58319 31.6418 9.83261 27.6546 13.9834 24.6875ZM68.3193 38.7119H70.9863L85.7119 21.373H103.243L83.3926 45.1328L88.958 55.8428C90.8827 59.4822 93.4572 59.3428 97.6777 59.3428L95.7754 71.4668C93.642 71.4668 91.0449 71.4665 87.4043 71.4434C82.1635 71.4202 78.1519 70.2612 75.3691 63.9561L69.6641 50.9053H66.1631L62.5449 71.4434H46.2197L58.7881 0H75.1143L68.3193 38.7119ZM118.248 54.9814C117.831 57.3459 118.04 59.3623 121.24 59.3623H124.347L122.052 71.4404H113.518C103.778 71.4172 99.8355 67.3828 101.436 57.8555L107.929 21.3691H124.255L118.248 54.9814ZM198.597 71.4404H182.271L191.084 21.3691H207.34L198.597 71.4404ZM218.17 20.8389C223.086 20.8389 226.773 23.3891 226.773 28.6973C226.773 33.797 223.086 36.4628 218.17 36.4629C213.625 36.4629 209.845 33.8202 209.845 28.6973C209.845 23.3891 213.625 20.8389 218.17 20.8389ZM117.04 2.5293C122.026 2.5293 125.76 5.12568 125.76 10.4805C125.76 15.6495 122.026 18.3379 117.04 18.3379C112.449 18.3377 108.6 15.6493 108.6 10.4805C108.6 5.10269 112.426 2.52948 117.04 2.5293Z" fill="#3E1599"/>
<path opacity="0.7" d="M2.15176 103V85.2307H8.36409C9.60193 85.2307 10.6229 85.4447 11.4269 85.8727C12.2309 86.295 12.8296 86.8647 13.2229 87.582C13.6162 88.2934 13.8129 89.083 13.8129 89.9506C13.8129 90.7142 13.677 91.3446 13.4051 91.8421C13.139 92.3395 12.7862 92.7329 12.3466 93.0221C11.9128 93.3113 11.4413 93.5253 10.9323 93.6642V93.8377C11.476 93.8724 12.0227 94.0633 12.5722 94.4103C13.1217 94.7574 13.5815 95.2548 13.9517 95.9027C14.3219 96.5505 14.507 97.343 14.507 98.28C14.507 99.1708 14.3046 99.9719 13.8997 100.683C13.4948 101.395 12.8556 101.959 11.9822 102.375C11.1087 102.792 9.97212 103 8.57232 103H2.15176ZM4.30351 101.091H8.57232C9.97791 101.091 10.9757 100.819 11.5657 100.276C12.1615 99.7261 12.4594 99.0609 12.4594 98.28C12.4594 97.6785 12.3061 97.1232 11.9995 96.6141C11.6929 96.0993 11.2562 95.6887 10.6894 95.3821C10.1225 95.0697 9.45153 94.9136 8.67644 94.9136H4.30351V101.091ZM4.30351 93.0394H8.29468C8.94252 93.0394 9.52673 92.9122 10.0473 92.6577C10.5737 92.4032 10.9902 92.0445 11.2967 91.5818C11.6091 91.1191 11.7653 90.5753 11.7653 89.9506C11.7653 89.1698 11.4934 88.5075 10.9497 87.9637C10.4059 87.4142 9.54408 87.1395 8.36409 87.1395H4.30351V93.0394ZM19.0838 107.998C18.7368 107.998 18.4273 107.969 18.1554 107.911C17.8836 107.859 17.6956 107.807 17.5915 107.755L18.1121 105.95C18.6095 106.077 19.0491 106.124 19.4309 106.089C19.8126 106.054 20.151 105.883 20.446 105.577C20.7468 105.276 21.0216 104.787 21.2703 104.111L21.6521 103.069L16.7238 89.673H18.945L22.6238 100.293H22.7626L26.4414 89.673H28.6626L23.0056 104.944C22.7511 105.632 22.4358 106.202 22.0598 106.653C21.6839 107.11 21.2472 107.448 20.7497 107.668C20.258 107.888 19.7027 107.998 19.0838 107.998ZM38.5147 103V85.2307H44.5188C45.9128 85.2307 47.0523 85.4823 47.9373 85.9855C48.8281 86.483 49.4875 87.1568 49.9156 88.0071C50.3436 88.8574 50.5576 89.806 50.5576 90.853C50.5576 91.8999 50.3436 92.8515 49.9156 93.7075C49.4933 94.5636 48.8397 95.2462 47.9547 95.7552C47.0697 96.2584 45.936 96.51 44.5535 96.51H40.25V94.6012H44.4841C45.4385 94.6012 46.2049 94.4364 46.7834 94.1066C47.3618 93.7769 47.7811 93.3316 48.0414 92.7705C48.3075 92.2036 48.4406 91.5645 48.4406 90.853C48.4406 90.1415 48.3075 89.5052 48.0414 88.9442C47.7811 88.3831 47.3589 87.9435 46.7747 87.6254C46.1905 87.3014 45.4154 87.1395 44.4494 87.1395H40.6665V103H38.5147ZM55.7938 85.2307V103H53.7462V85.2307H55.7938ZM67.943 97.5512V89.673H69.9907V103H67.943V100.744H67.8042C67.4918 101.421 67.006 101.996 66.3466 102.471C65.6871 102.939 64.8542 103.174 63.8477 103.174C63.0148 103.174 62.2744 102.991 61.6266 102.627C60.9787 102.257 60.4697 101.701 60.0995 100.961C59.7293 100.215 59.5442 99.2749 59.5442 98.1412V89.673H61.5919V98.0024C61.5919 98.9741 61.8637 99.7492 62.4075 100.328C62.957 100.906 63.6569 101.195 64.5072 101.195C65.0162 101.195 65.5339 101.065 66.0602 100.805C66.5924 100.545 67.0378 100.145 67.3964 99.6075C67.7608 99.0696 67.943 98.3841 67.943 97.5512ZM75.2681 89.673L78.461 95.1218L81.654 89.673H84.014L79.7104 96.3365L84.014 103H81.654L78.461 97.8288L75.2681 103H72.9081L77.1422 96.3365L72.9081 89.673H75.2681ZM91.9746 103.278C90.6905 103.278 89.5828 102.994 88.6515 102.427C87.726 101.855 87.0117 101.056 86.5084 100.033C86.011 99.0031 85.7623 97.8057 85.7623 96.4406C85.7623 95.0755 86.011 93.8724 86.5084 92.8312C87.0117 91.7843 87.7116 90.9687 88.6081 90.3845C89.5105 89.7945 90.5632 89.4995 91.7664 89.4995C92.4605 89.4995 93.1459 89.6151 93.8227 89.8465C94.4994 90.0779 95.1155 90.4539 95.6708 90.9745C96.226 91.4893 96.6685 92.1718 96.9983 93.0221C97.328 93.8724 97.4928 94.9193 97.4928 96.163V97.0306H87.2199V95.2606H95.4105C95.4105 94.5087 95.2601 93.8377 94.9593 93.2477C94.6643 92.6577 94.242 92.192 93.6925 91.8508C93.1488 91.5095 92.5067 91.3389 91.7664 91.3389C90.9508 91.3389 90.2451 91.5413 89.6493 91.9462C89.0593 92.3453 88.6052 92.8659 88.2871 93.508C87.969 94.15 87.8099 94.8384 87.8099 95.573V96.753C87.8099 97.7594 87.9834 98.6126 88.3305 99.3125C88.6833 100.007 89.1721 100.536 89.7968 100.9C90.4215 101.259 91.1474 101.438 91.9746 101.438C92.5125 101.438 92.9984 101.363 93.4322 101.213C93.8718 101.056 94.2507 100.825 94.5688 100.519C94.887 100.206 95.1328 99.8186 95.3063 99.3559L97.2846 99.9112C97.0763 100.582 96.7264 101.172 96.2347 101.681C95.7431 102.184 95.1357 102.578 94.4127 102.861C93.6896 103.139 92.8769 103.278 91.9746 103.278ZM106.195 103.278C104.911 103.278 103.803 102.994 102.872 102.427C101.947 101.855 101.232 101.056 100.729 100.033C100.232 99.0031 99.9829 97.8057 99.9829 96.4406C99.9829 95.0755 100.232 93.8724 100.729 92.8312C101.232 91.7843 101.932 90.9687 102.829 90.3845C103.731 89.7945 104.784 89.4995 105.987 89.4995C106.681 89.4995 107.367 89.6151 108.043 89.8465C108.72 90.0779 109.336 90.4539 109.891 90.9745C110.447 91.4893 110.889 92.1718 111.219 93.0221C111.549 93.8724 111.713 94.9193 111.713 96.163V97.0306H101.441V95.2606H109.631C109.631 94.5087 109.481 93.8377 109.18 93.2477C108.885 92.6577 108.463 92.192 107.913 91.8508C107.369 91.5095 106.727 91.3389 105.987 91.3389C105.171 91.3389 104.466 91.5413 103.87 91.9462C103.28 92.3453 102.826 92.8659 102.508 93.508C102.19 94.15 102.031 94.8384 102.031 95.573V96.753C102.031 97.7594 102.204 98.6126 102.551 99.3125C102.904 100.007 103.393 100.536 104.017 100.9C104.642 101.259 105.368 101.438 106.195 101.438C106.733 101.438 107.219 101.363 107.653 101.213C108.093 101.056 108.471 100.825 108.79 100.519C109.108 100.206 109.353 99.8186 109.527 99.3559L111.505 99.9112C111.297 100.582 110.947 101.172 110.455 101.681C109.964 102.184 109.356 102.578 108.633 102.861C107.91 103.139 107.098 103.278 106.195 103.278Z" fill="#656B8E"/>
</svg>
